<?xml version="1.0"?>
<svg width="120" height="120" xmlns="http://www.w3.org/2000/svg" xmlns:svg="http://www.w3.org/2000/svg">
 <g>
  <title>Layer 1</title>
  <path fill="#ffffff" d="m-0.47461,0l120.000001,0l0,120l-120.000001,0l0,-120z" id="svg_1"/>
  <path fill="#a7a9ac" d="m62.470001,5.03c18.720001,-0.06 37.440002,-0.04 56.159996,-0.01c0,4.37 0,8.73 -0.009987,13.090001c-14.940002,0.07 -29.879997,-0.050001 -44.82,0.059999c-0.010002,20.6 -0.010002,41.210001 0,61.810003c-3.770004,0.029999 -7.550003,0.029999 -11.32,-0.010002c0.009998,-24.98 0.02,-49.960001 -0.010002,-74.940001l-0.000008,0z" id="svg_3"/>
  <path fill="#4e4038" d="m10.36,36.889999c10.490001,-0.029999 20.990001,-0.009998 31.489999,-0.02c0,3.84 0,7.670002 0,11.510002c-10.499998,0 -20.989998,-0.010002 -31.479999,0c-0.01,-3.830002 -0.01,-7.66 -0.01,-11.490002z" id="svg_4"/>
  <path fill="#4e4038" d="m60.130001,91.080002c1.539997,-0.050003 3.07,-0.090004 4.609997,-0.099998c0,0.879997 0.010002,2.629997 0.010002,3.509987c2.339996,0 4.690002,0.010002 7.040001,0.010002c0.010002,1 0.010002,3 0.010002,3.989998c-2.360001,0.010002 -4.730003,0.010002 -7.100014,0.019997c0.240013,2.329994 -0.57,5.040001 0.940002,7.07c1.5,1.810005 4.110001,1.270004 6.18,1.530006c-0.010002,1.32 -0.020004,2.649994 -0.029999,3.969994c-3.220001,0.07 -6.840004,-0.159996 -9.010002,-2.899994c-2.690002,-2.540001 -1.960003,-6.480003 -2.07,-9.780006c-1.890003,0.189995 -4.23,0.550003 -4.780003,2.730003c-0.369999,3.269997 -0.119999,6.580002 -0.149998,9.860001c-1.34,0.010002 -2.68,0.010002 -4.010002,0.010002c-0.009998,-4.490005 -0.009998,-8.980003 0,-13.470001c-0.540001,-0.010002 -1.610001,-0.029999 -2.149998,-0.050003c0.52,-1.009995 1.039997,-2.009995 1.559998,-3.019997c1.850002,0 3.700001,0.159996 5.5,0.629997c1.59,-0.269997 3.190002,-0.529999 4.790001,-0.789986c-0.720001,-0.07 -2.169998,-0.200005 -2.900002,-0.270004c0.52,-0.979996 1.040001,-1.970001 1.560001,-2.949997l0.000011,0z" id="svg_5"/>
  <path fill="#4e4038" d="m3.269028,5.029999c18.720001,-0.059999 37.440002,-0.039999 56.160004,-0.009998c0,4.369999 0,8.73 -0.009995,13.090007c-14.939987,0.07 -29.87999,-0.049999 -44.820007,0.05999c-0.009995,20.600002 -0.009995,41.209999 0,61.81002c-3.769997,0.029999 -7.550011,0.029999 -11.319992,-0.01001c0.009995,-24.980011 0.019997,-49.960011 -0.01001,-74.94001z" id="svg_8" transform="scale(2,-2)"/>
 </g>
</svg>