<?xml version="1.0" standalone="no"?>
<!DOCTYPE svg PUBLIC "-//W3C//DTD SVG 20010904//EN"
 "http://www.w3.org/TR/2001/REC-SVG-20010904/DTD/svg10.dtd">
<svg version="1.0" xmlns="http://www.w3.org/2000/svg"
 width="120.000000pt" height="120.000000pt" viewBox="0 0 120.000000 120.000000"
 preserveAspectRatio="xMidYMid meet">
<metadata>
Created by potrace 1.13, written by Peter Selinger 2001-2015
</metadata>
<g transform="translate(0.000000,120.000000) scale(0.100000,-0.100000)"
fill="#000000" stroke="none">
<path fill="#4e4038" d="M20 1085 l0 -65 225 0 225 0 0 -310 0 -310 55 0 55 0 0 375 0 375
-280 0 -280 0 0 -65z"/>

<path fill="#4e4038" d="M110 775 l0 -55 155 0 155 0 0 55 0 55 -155 0 -155 0 0 -55z"/>
<path fill="#4e4038" d="M597 276 c-3 -8 -1 -17 6 -20 13 -5 -24 -9 -65 -6 -14 1 -29 -3 -33
-9 -3 -6 -1 -11 4 -11 7 0 11 -27 11 -70 0 -63 2 -70 20 -70 18 0 20 7 20 55
0 43 4 56 19 64 23 13 31 5 31 -30 0 -41 9 -58 41 -74 41 -22 69 -19 69 5 0
13 -7 20 -19 20 -40 0 -51 11 -51 51 0 38 1 39 35 39 24 0 35 5 35 15 0 10
-11 15 -35 15 -28 0 -35 4 -35 20 0 24 -45 29 -53 6z"/>
</g>
</svg>
