<?xml version="1.0" encoding="UTF-8" ?>
<!DOCTYPE svg PUBLIC "-//W3C//DTD SVG 1.1//EN" "http://www.w3.org/Graphics/SVG/1.1/DTD/svg11.dtd">
<svg width="120pt" height="120pt" viewBox="0 0 120 120" version="1.1" xmlns="http://www.w3.org/2000/svg">
<path fill="#ffffff" d=" M 0.00 0.00 L 120.00 0.00 L 120.00 120.00 L 0.00 120.00 L 0.00 0.00 Z" />
<path fill="#4e4038" d=" M 1.88 5.00 C 20.64 5.06 39.41 4.87 58.17 5.10 C 57.41 13.70 58.65 22.32 57.93 30.93 C 58.26 47.25 58.07 63.58 58.14 79.91 C 54.31 80.03 50.48 80.01 46.65 80.00 C 46.66 59.37 46.65 38.75 46.66 18.13 C 31.73 18.12 16.81 18.13 1.88 18.12 C 1.88 13.75 1.88 9.38 1.88 5.00 Z" />
<path fill="#a7a9ac" d=" M 62.47 5.03 C 81.19 4.97 99.91 4.99 118.63 5.02 C 118.63 9.39 118.63 13.75 118.62 18.11 C 103.68 18.18 88.74 18.06 73.80 18.17 C 73.79 38.77 73.79 59.38 73.80 79.98 C 70.03 80.01 66.25 80.01 62.48 79.97 C 62.49 54.99 62.50 30.01 62.47 5.03 Z" />
<path fill="#4e4038" d=" M 10.36 36.89 C 20.85 36.86 31.35 36.88 41.85 36.87 C 41.85 40.71 41.85 44.54 41.85 48.38 C 31.35 48.38 20.86 48.37 10.37 48.38 C 10.36 44.55 10.36 40.72 10.36 36.89 Z" />
<path fill="#4e4038" d=" M 60.13 91.08 C 61.67 91.03 63.20 90.99 64.74 90.98 C 64.74 91.86 64.75 93.61 64.75 94.49 C 67.09 94.49 69.44 94.50 71.79 94.50 C 71.80 95.50 71.80 97.50 71.80 98.49 C 69.44 98.50 67.07 98.50 64.70 98.51 C 64.94 100.84 64.13 103.55 65.64 105.58 C 67.14 107.39 69.75 106.85 71.82 107.11 C 71.81 108.43 71.80 109.76 71.79 111.08 C 68.57 111.15 64.95 110.92 62.78 108.18 C 60.09 105.64 60.82 101.70 60.71 98.40 C 58.82 98.59 56.48 98.95 55.93 101.13 C 55.56 104.40 55.81 107.71 55.78 110.99 C 54.44 111.00 53.10 111.00 51.77 111.00 C 51.76 106.51 51.76 102.02 51.77 97.53 C 51.23 97.52 50.16 97.50 49.62 97.48 C 50.14 96.47 50.66 95.47 51.18 94.46 C 53.03 94.46 54.88 94.62 56.68 95.09 C 58.27 94.82 59.87 94.56 61.47 94.30 C 60.75 94.23 59.30 94.10 58.57 94.03 C 59.09 93.05 59.61 92.06 60.13 91.08 Z" />
</svg>
